<?xml version="1.0" encoding="utf-8"?>
<!-- Generator: Adobe Illustrator 24.1.2, SVG Export Plug-In . SVG Version: 6.00 Build 0)  -->
<svg version="1.1" id="BACKGROUND" xmlns="http://www.w3.org/2000/svg" xmlns:xlink="http://www.w3.org/1999/xlink" x="0px" y="0px"
	 viewBox="0 0 750 500" style="enable-background:new 0 0 750 500;" xml:space="preserve">
<style type="text/css">
	.st0{fill:url(#SVGID_1_);}
	.st1{clip-path:url(#SVGID_3_);}
	.st2{opacity:0.5;}
	.st3{fill:#FFFFFF;}
	.st4{opacity:0.89;}
	.st5{fill:none;}
	.st6{opacity:0.81;}
	.st7{fill:none;stroke:#FFFFFF;stroke-width:1.0531;stroke-linecap:round;stroke-linejoin:round;stroke-dasharray:0,5.6068;}
	.st8{fill:none;stroke:#FFFFFF;stroke-width:1.1458;stroke-linecap:round;stroke-linejoin:round;stroke-dasharray:0,5.5242;}
	.st9{fill:none;stroke:#FFFFFF;stroke-width:1.2385;stroke-linecap:round;stroke-linejoin:round;stroke-dasharray:0,5.4716;}
	.st10{fill:none;stroke:#FFFFFF;stroke-width:1.3312;stroke-linecap:round;stroke-linejoin:round;stroke-dasharray:0,5.3807;}
	.st11{fill:none;stroke:#FFFFFF;stroke-width:1.4239;stroke-linecap:round;stroke-linejoin:round;stroke-dasharray:0,5.3202;}
	.st12{fill:none;stroke:#FFFFFF;stroke-width:1.5166;stroke-linecap:round;stroke-linejoin:round;stroke-dasharray:0,5.2196;}
	.st13{fill:none;stroke:#FFFFFF;stroke-width:1.6093;stroke-linecap:round;stroke-linejoin:round;stroke-dasharray:0,5.1495;}
	.st14{fill:none;stroke:#FFFFFF;stroke-width:1.702;stroke-linecap:round;stroke-linejoin:round;stroke-dasharray:0,5.0742;}
	.st15{fill:none;stroke:#FFFFFF;stroke-width:1.7948;stroke-linecap:round;stroke-linejoin:round;stroke-dasharray:0,4.9933;}
	.st16{fill:none;stroke:#FFFFFF;stroke-width:1.8875;stroke-linecap:round;stroke-linejoin:round;stroke-dasharray:0,4.9059;}
	.st17{fill:none;stroke:#FFFFFF;stroke-width:1.9802;stroke-linecap:round;stroke-linejoin:round;stroke-dasharray:0,4.8513;}
	.st18{fill:none;stroke:#FFFFFF;stroke-width:2.0729;stroke-linecap:round;stroke-linejoin:round;stroke-dasharray:0,4.7494;}
	.st19{fill:none;stroke:#FFFFFF;stroke-width:2.1656;stroke-linecap:round;stroke-linejoin:round;stroke-dasharray:0,4.6808;}
	.st20{fill:none;stroke:#FFFFFF;stroke-width:2.2583;stroke-linecap:round;stroke-linejoin:round;stroke-dasharray:0,4.6041;}
	.st21{fill:none;stroke:#FFFFFF;stroke-width:2.351;stroke-linecap:round;stroke-linejoin:round;stroke-dasharray:0,4.518;}
	.st22{fill:none;stroke:#FFFFFF;stroke-width:2.4437;stroke-linecap:round;stroke-linejoin:round;stroke-dasharray:0,4.469;}
	.st23{fill:none;stroke:#FFFFFF;stroke-width:2.5364;stroke-linecap:round;stroke-linejoin:round;stroke-dasharray:0,4.3595;}
	.st24{fill:none;stroke:#FFFFFF;stroke-width:2.6292;stroke-linecap:round;stroke-linejoin:round;stroke-dasharray:0,4.2885;}
	.st25{fill:none;stroke:#FFFFFF;stroke-width:2.7219;stroke-linecap:round;stroke-linejoin:round;stroke-dasharray:0,4.2035;}
	.st26{fill:none;stroke:#FFFFFF;stroke-width:2.8146;stroke-linecap:round;stroke-linejoin:round;stroke-dasharray:0,4.1657;}
	.st27{fill:none;stroke:#FFFFFF;stroke-width:2.9073;stroke-linecap:round;stroke-linejoin:round;stroke-dasharray:0,4.042;}
	.st28{fill:none;stroke:#FFFFFF;stroke-width:3;stroke-linecap:round;stroke-linejoin:round;stroke-dasharray:0,3.9647;}
	.st29{opacity:0.77;}
	.st30{clip-path:url(#SVGID_7_);}
	.st31{fill:none;stroke:#FFFFFF;stroke-width:2;stroke-miterlimit:10;}
	.st32{opacity:0.72;}
	.st33{opacity:0.5;fill:none;stroke:#FFFFFF;stroke-width:30;stroke-miterlimit:10;}
	.st34{opacity:0.5;fill:url(#SVGID_8_);}
	.st35{opacity:0.5;fill:url(#SVGID_9_);}
	.st36{opacity:0.5;fill:url(#SVGID_10_);}
	.st37{opacity:0.49;}
	.st38{fill:none;stroke:#FFFFFF;stroke-width:2;stroke-linecap:round;stroke-linejoin:round;stroke-miterlimit:10;}
</style>
<g>
	<linearGradient id="SVGID_1_" gradientUnits="userSpaceOnUse" x1="374.5228" y1="8.9014" x2="375.4857" y2="495.4072">
		<stop  offset="0" style="stop-color:#57EE6A"/>
		<stop  offset="0.9249" style="stop-color:#0CCA76"/>
	</linearGradient>
	<rect class="st0" width="750" height="500"/>
	<g>
		<defs>
			<rect id="SVGID_2_" width="750" height="500"/>
		</defs>
		<clipPath id="SVGID_3_">
			<use xlink:href="#SVGID_2_"  style="overflow:visible;"/>
		</clipPath>
		<g class="st1">
			<g>
				<g class="st2">
					<path class="st3" d="M28.7,23.3c0,1-0.8,1.8-1.8,1.8c-1,0-1.8-0.8-1.8-1.8c0-1,0.8-1.8,1.8-1.8C27.9,21.6,28.7,22.4,28.7,23.3z
						"/>
					<circle class="st3" cx="42.2" cy="23.3" r="1.8"/>
					<circle class="st3" cx="57.5" cy="23.3" r="1.8"/>
					<path class="st3" d="M74.6,23.3c0,1-0.8,1.8-1.8,1.8c-1,0-1.8-0.8-1.8-1.8c0-1,0.8-1.8,1.8-1.8C73.8,21.6,74.6,22.4,74.6,23.3z
						"/>
					<circle class="st3" cx="88.1" cy="23.3" r="1.8"/>
					<circle class="st3" cx="103.4" cy="23.3" r="1.8"/>
					<circle class="st3" cx="118.7" cy="23.3" r="1.8"/>
					<circle class="st3" cx="134" cy="23.3" r="1.8"/>
					<path class="st3" d="M28.7,38.6c0,1-0.8,1.8-1.8,1.8c-1,0-1.8-0.8-1.8-1.8c0-1,0.8-1.8,1.8-1.8C27.9,36.9,28.7,37.7,28.7,38.6z
						"/>
					<circle class="st3" cx="42.2" cy="38.6" r="1.8"/>
					<circle class="st3" cx="57.5" cy="38.6" r="1.8"/>
					<path class="st3" d="M74.6,38.6c0,1-0.8,1.8-1.8,1.8c-1,0-1.8-0.8-1.8-1.8c0-1,0.8-1.8,1.8-1.8C73.8,36.9,74.6,37.7,74.6,38.6z
						"/>
					<circle class="st3" cx="88.1" cy="38.6" r="1.8"/>
					<circle class="st3" cx="103.4" cy="38.6" r="1.8"/>
					<circle class="st3" cx="118.7" cy="38.6" r="1.8"/>
					<circle class="st3" cx="134" cy="38.6" r="1.8"/>
					<path class="st3" d="M28.7,53.9c0,1-0.8,1.8-1.8,1.8c-1,0-1.8-0.8-1.8-1.8s0.8-1.8,1.8-1.8C27.9,52.2,28.7,53,28.7,53.9z"/>
					<circle class="st3" cx="42.2" cy="53.9" r="1.8"/>
					<circle class="st3" cx="57.5" cy="53.9" r="1.8"/>
					<path class="st3" d="M74.6,53.9c0,1-0.8,1.8-1.8,1.8c-1,0-1.8-0.8-1.8-1.8s0.8-1.8,1.8-1.8C73.8,52.2,74.6,53,74.6,53.9z"/>
					<circle class="st3" cx="88.1" cy="53.9" r="1.8"/>
					<circle class="st3" cx="103.4" cy="53.9" r="1.8"/>
					<circle class="st3" cx="118.7" cy="53.9" r="1.8"/>
					<circle class="st3" cx="134" cy="53.9" r="1.8"/>
					<path class="st3" d="M28.7,69.3c0,1-0.8,1.8-1.8,1.8c-1,0-1.8-0.8-1.8-1.8c0-1,0.8-1.8,1.8-1.8C27.9,67.5,28.7,68.3,28.7,69.3z
						"/>
					<circle class="st3" cx="42.2" cy="69.3" r="1.8"/>
					<circle class="st3" cx="57.5" cy="69.3" r="1.8"/>
					<path class="st3" d="M74.6,69.3c0,1-0.8,1.8-1.8,1.8c-1,0-1.8-0.8-1.8-1.8c0-1,0.8-1.8,1.8-1.8C73.8,67.5,74.6,68.3,74.6,69.3z
						"/>
					<circle class="st3" cx="88.1" cy="69.3" r="1.8"/>
					<circle class="st3" cx="103.4" cy="69.3" r="1.8"/>
					<circle class="st3" cx="118.7" cy="69.3" r="1.8"/>
					<circle class="st3" cx="134" cy="69.3" r="1.8"/>
					<path class="st3" d="M28.7,84.6c0,1-0.8,1.8-1.8,1.8c-1,0-1.8-0.8-1.8-1.8c0-1,0.8-1.8,1.8-1.8C27.9,82.8,28.7,83.6,28.7,84.6z
						"/>
					<circle class="st3" cx="42.2" cy="84.6" r="1.8"/>
					<circle class="st3" cx="57.5" cy="84.6" r="1.8"/>
					<path class="st3" d="M74.6,84.6c0,1-0.8,1.8-1.8,1.8c-1,0-1.8-0.8-1.8-1.8c0-1,0.8-1.8,1.8-1.8C73.8,82.8,74.6,83.6,74.6,84.6z
						"/>
					<circle class="st3" cx="88.1" cy="84.6" r="1.8"/>
					<circle class="st3" cx="103.4" cy="84.6" r="1.8"/>
					<circle class="st3" cx="118.7" cy="84.6" r="1.8"/>
					<circle class="st3" cx="134" cy="84.6" r="1.8"/>
					<path class="st3" d="M28.7,99.9c0,1-0.8,1.8-1.8,1.8c-1,0-1.8-0.8-1.8-1.8s0.8-1.8,1.8-1.8C27.9,98.1,28.7,98.9,28.7,99.9z"/>
					<circle class="st3" cx="42.2" cy="99.9" r="1.8"/>
					<circle class="st3" cx="57.5" cy="99.9" r="1.8"/>
					<path class="st3" d="M74.6,99.9c0,1-0.8,1.8-1.8,1.8c-1,0-1.8-0.8-1.8-1.8s0.8-1.8,1.8-1.8C73.8,98.1,74.6,98.9,74.6,99.9z"/>
					<circle class="st3" cx="88.1" cy="99.9" r="1.8"/>
					<circle class="st3" cx="103.4" cy="99.9" r="1.8"/>
					<circle class="st3" cx="118.7" cy="99.9" r="1.8"/>
					<circle class="st3" cx="134" cy="99.9" r="1.8"/>
				</g>
				<g class="st2">
					<circle class="st3" cx="636.6" cy="289.4" r="1.8"/>
					<circle class="st3" cx="636.6" cy="304.7" r="1.8"/>
					<circle class="st3" cx="636.6" cy="320" r="1.8"/>
					<circle class="st3" cx="636.6" cy="335.3" r="1.8"/>
					<circle class="st3" cx="636.6" cy="350.6" r="1.8"/>
					<circle class="st3" cx="636.6" cy="365.9" r="1.8"/>
					<circle class="st3" cx="636.6" cy="381.3" r="1.8"/>
					<path class="st3" d="M636.6,398.3c-1,0-1.8-0.8-1.8-1.8c0-1,0.8-1.8,1.8-1.8c1,0,1.8,0.8,1.8,1.8
						C638.4,397.5,637.6,398.3,636.6,398.3z"/>
					<path class="st3" d="M621.3,291.2c-1,0-1.8-0.8-1.8-1.8c0-1,0.8-1.8,1.8-1.8c1,0,1.8,0.8,1.8,1.8
						C623,290.4,622.3,291.2,621.3,291.2z"/>
					<path class="st3" d="M621.3,306.5c-1,0-1.8-0.8-1.8-1.8c0-1,0.8-1.8,1.8-1.8c1,0,1.8,0.8,1.8,1.8
						C623,305.7,622.3,306.5,621.3,306.5z"/>
					<path class="st3" d="M621.3,321.8c-1,0-1.8-0.8-1.8-1.8c0-1,0.8-1.8,1.8-1.8c1,0,1.8,0.8,1.8,1.8
						C623,321,622.3,321.8,621.3,321.8z"/>
					<path class="st3" d="M621.3,337.1c-1,0-1.8-0.8-1.8-1.8c0-1,0.8-1.8,1.8-1.8c1,0,1.8,0.8,1.8,1.8
						C623,336.3,622.3,337.1,621.3,337.1z"/>
					<path class="st3" d="M621.3,352.4c-1,0-1.8-0.8-1.8-1.8c0-1,0.8-1.8,1.8-1.8c1,0,1.8,0.8,1.8,1.8
						C623,351.6,622.3,352.4,621.3,352.4z"/>
					<path class="st3" d="M621.3,367.7c-1,0-1.8-0.8-1.8-1.8c0-1,0.8-1.8,1.8-1.8c1,0,1.8,0.8,1.8,1.8
						C623,366.9,622.3,367.7,621.3,367.7z"/>
					<path class="st3" d="M621.3,383c-1,0-1.8-0.8-1.8-1.8c0-1,0.8-1.8,1.8-1.8c1,0,1.8,0.8,1.8,1.8C623,382.2,622.3,383,621.3,383z
						"/>
					<path class="st3" d="M621.3,398.3c-1,0-1.8-0.8-1.8-1.8c0-1,0.8-1.8,1.8-1.8c1,0,1.8,0.8,1.8,1.8
						C623,397.5,622.3,398.3,621.3,398.3z"/>
					<circle class="st3" cx="606" cy="289.4" r="1.8"/>
					<circle class="st3" cx="606" cy="304.7" r="1.8"/>
					<circle class="st3" cx="606" cy="320" r="1.8"/>
					<circle class="st3" cx="606" cy="335.3" r="1.8"/>
					<circle class="st3" cx="606" cy="350.6" r="1.8"/>
					<circle class="st3" cx="606" cy="365.9" r="1.8"/>
					<circle class="st3" cx="606" cy="381.3" r="1.8"/>
					<path class="st3" d="M606,398.3c-1,0-1.8-0.8-1.8-1.8c0-1,0.8-1.8,1.8-1.8c1,0,1.8,0.8,1.8,1.8
						C607.7,397.5,606.9,398.3,606,398.3z"/>
					<circle class="st3" cx="590.7" cy="289.4" r="1.8"/>
					<circle class="st3" cx="590.7" cy="304.7" r="1.8"/>
					<circle class="st3" cx="590.7" cy="320" r="1.8"/>
					<circle class="st3" cx="590.7" cy="335.3" r="1.8"/>
					<circle class="st3" cx="590.7" cy="350.6" r="1.8"/>
					<circle class="st3" cx="590.7" cy="365.9" r="1.8"/>
					<circle class="st3" cx="590.7" cy="381.3" r="1.8"/>
					<path class="st3" d="M590.7,398.3c-1,0-1.8-0.8-1.8-1.8c0-1,0.8-1.8,1.8-1.8c1,0,1.8,0.8,1.8,1.8
						C592.4,397.5,591.6,398.3,590.7,398.3z"/>
					<circle class="st3" cx="575.4" cy="289.4" r="1.8"/>
					<circle class="st3" cx="575.4" cy="304.7" r="1.8"/>
					<circle class="st3" cx="575.4" cy="320" r="1.8"/>
					<circle class="st3" cx="575.4" cy="335.3" r="1.8"/>
					<circle class="st3" cx="575.4" cy="350.6" r="1.8"/>
					<circle class="st3" cx="575.4" cy="365.9" r="1.8"/>
					<circle class="st3" cx="575.4" cy="381.3" r="1.8"/>
					<path class="st3" d="M575.4,398.3c-1,0-1.8-0.8-1.8-1.8c0-1,0.8-1.8,1.8-1.8c1,0,1.8,0.8,1.8,1.8
						C577.1,397.5,576.3,398.3,575.4,398.3z"/>
					<circle class="st3" cx="560.1" cy="289.4" r="1.8"/>
					<circle class="st3" cx="560.1" cy="304.7" r="1.8"/>
					<circle class="st3" cx="560.1" cy="320" r="1.8"/>
					<circle class="st3" cx="560.1" cy="335.3" r="1.8"/>
					<circle class="st3" cx="560.1" cy="350.6" r="1.8"/>
					<circle class="st3" cx="560.1" cy="365.9" r="1.8"/>
					<circle class="st3" cx="560.1" cy="381.3" r="1.8"/>
					<path class="st3" d="M560.1,398.3c-1,0-1.8-0.8-1.8-1.8c0-1,0.8-1.8,1.8-1.8c1,0,1.8,0.8,1.8,1.8
						C561.8,397.5,561,398.3,560.1,398.3z"/>
				</g>
				<g class="st2">
					<path class="st3" d="M441.2,60.3c0,1-0.8,1.8-1.8,1.8c-1,0-1.8-0.8-1.8-1.8c0-1,0.8-1.8,1.8-1.8
						C440.4,58.5,441.2,59.3,441.2,60.3z"/>
					<path class="st3" d="M456.5,60.3c0,1-0.8,1.8-1.8,1.8c-1,0-1.8-0.8-1.8-1.8c0-1,0.8-1.8,1.8-1.8
						C455.7,58.5,456.5,59.3,456.5,60.3z"/>
					<path class="st3" d="M471.8,60.3c0,1-0.8,1.8-1.8,1.8s-1.8-0.8-1.8-1.8c0-1,0.8-1.8,1.8-1.8S471.8,59.3,471.8,60.3z"/>
					<path class="st3" d="M441.2,75.6c0,1-0.8,1.8-1.8,1.8c-1,0-1.8-0.8-1.8-1.8c0-1,0.8-1.8,1.8-1.8
						C440.4,73.8,441.2,74.6,441.2,75.6z"/>
					<path class="st3" d="M456.5,75.6c0,1-0.8,1.8-1.8,1.8c-1,0-1.8-0.8-1.8-1.8c0-1,0.8-1.8,1.8-1.8
						C455.7,73.8,456.5,74.6,456.5,75.6z"/>
					<path class="st3" d="M471.8,75.6c0,1-0.8,1.8-1.8,1.8s-1.8-0.8-1.8-1.8c0-1,0.8-1.8,1.8-1.8S471.8,74.6,471.8,75.6z"/>
					<path class="st3" d="M441.2,90.9c0,1-0.8,1.8-1.8,1.8c-1,0-1.8-0.8-1.8-1.8c0-1,0.8-1.8,1.8-1.8
						C440.4,89.1,441.2,89.9,441.2,90.9z"/>
					<path class="st3" d="M456.5,90.9c0,1-0.8,1.8-1.8,1.8c-1,0-1.8-0.8-1.8-1.8c0-1,0.8-1.8,1.8-1.8
						C455.7,89.1,456.5,89.9,456.5,90.9z"/>
					<path class="st3" d="M471.8,90.9c0,1-0.8,1.8-1.8,1.8s-1.8-0.8-1.8-1.8c0-1,0.8-1.8,1.8-1.8S471.8,89.9,471.8,90.9z"/>
				</g>
				<g class="st2">
					<path class="st3" d="M298.3,196.2c0,1-0.8,1.8-1.8,1.8c-1,0-1.8-0.8-1.8-1.8c0-1,0.8-1.8,1.8-1.8
						C297.5,194.5,298.3,195.3,298.3,196.2z"/>
					<circle class="st3" cx="311.8" cy="196.2" r="1.8"/>
					<circle class="st3" cx="327.1" cy="196.2" r="1.8"/>
					<path class="st3" d="M298.3,211.6c0,1-0.8,1.8-1.8,1.8c-1,0-1.8-0.8-1.8-1.8c0-1,0.8-1.8,1.8-1.8
						C297.5,209.8,298.3,210.6,298.3,211.6z"/>
					<circle class="st3" cx="311.8" cy="211.6" r="1.8"/>
					<circle class="st3" cx="327.1" cy="211.6" r="1.8"/>
					<path class="st3" d="M298.3,226.9c0,1-0.8,1.8-1.8,1.8c-1,0-1.8-0.8-1.8-1.8c0-1,0.8-1.8,1.8-1.8
						C297.5,225.1,298.3,225.9,298.3,226.9z"/>
					<path class="st3" d="M313.6,226.9c0,1-0.8,1.8-1.8,1.8c-1,0-1.8-0.8-1.8-1.8c0-1,0.8-1.8,1.8-1.8
						C312.8,225.1,313.6,225.9,313.6,226.9z"/>
					<path class="st3" d="M328.9,226.9c0,1-0.8,1.8-1.8,1.8c-1,0-1.8-0.8-1.8-1.8c0-1,0.8-1.8,1.8-1.8
						C328.1,225.1,328.9,225.9,328.9,226.9z"/>
				</g>
			</g>
			<g>
				<g class="st4">
					<g>
						<path class="st5" d="M180.5,114.5"/>
					</g>
					<g>
						<path class="st5" d="M186.2,120.3"/>
					</g>
					<g>
						<path class="st5" d="M192,126.1"/>
					</g>
					<g>
						<path class="st5" d="M197.8,131.9"/>
					</g>
					<g>
						<path class="st5" d="M203.6,137.6"/>
					</g>
					<g>
						<path class="st5" d="M209.3,143.4"/>
					</g>
					<g>
						<path class="st5" d="M215.1,149.2"/>
					</g>
					<g>
						<path class="st5" d="M220.9,155"/>
					</g>
					<g>
						<path class="st5" d="M226.7,160.8"/>
					</g>
					<g>
						<path class="st5" d="M232.5,166.5"/>
					</g>
					<g>
						<path class="st5" d="M238.2,172.3"/>
					</g>
					<g>
						<path class="st5" d="M244,178.1"/>
					</g>
					<g>
						<path class="st5" d="M249.8,183.9"/>
					</g>
					<g>
						<path class="st5" d="M255.6,189.6"/>
					</g>
					<g>
						<path class="st5" d="M261.4,195.4"/>
					</g>
				</g>
				<g class="st6">
					<g>
						<circle class="st7" cx="750" cy="1.3" r="149.9"/>
					</g>
					<g>
						<circle class="st8" cx="750" cy="1.3" r="144.2"/>
					</g>
					<g>
						<circle class="st9" cx="750" cy="1.3" r="138.5"/>
					</g>
					<g>
						<circle class="st10" cx="750" cy="1.3" r="132.7"/>
					</g>
					<g>
						<circle class="st11" cx="750" cy="1.3" r="127"/>
					</g>
					<g>
						<circle class="st12" cx="750" cy="1.3" r="121.3"/>
					</g>
					<g>
						<circle class="st13" cx="750" cy="1.3" r="115.6"/>
					</g>
					<g>
						<circle class="st14" cx="750" cy="1.3" r="109.8"/>
					</g>
					<g>
						<circle class="st15" cx="750" cy="1.3" r="104.1"/>
					</g>
					<g>
						<circle class="st16" cx="750" cy="1.3" r="98.4"/>
					</g>
					<g>
						<circle class="st17" cx="750" cy="1.3" r="92.7"/>
					</g>
					<g>
						<circle class="st18" cx="750" cy="1.3" r="86.9"/>
					</g>
					<g>
						
							<ellipse transform="matrix(4.273957e-02 -0.9991 0.9991 4.273957e-02 716.6672 750.5393)" class="st19" cx="750" cy="1.3" rx="81.2" ry="81.2"/>
					</g>
					<g>
						<circle class="st20" cx="750" cy="1.3" r="75.5"/>
					</g>
					<g>
						<circle class="st21" cx="750" cy="1.3" r="69.7"/>
					</g>
					<g>
						<circle class="st22" cx="750" cy="1.3" r="64"/>
					</g>
					<g>
						<circle class="st23" cx="750" cy="1.3" r="58.3"/>
					</g>
					<g>
						<circle class="st24" cx="750" cy="1.3" r="52.6"/>
					</g>
					<g>
						<circle class="st25" cx="750" cy="1.3" r="46.8"/>
					</g>
					<g>
						<circle class="st26" cx="750" cy="1.3" r="41.1"/>
					</g>
					<g>
						<circle class="st27" cx="750" cy="1.3" r="35.4"/>
					</g>
					<g>
						
							<ellipse transform="matrix(0.2321 -0.9727 0.9727 0.2321 574.6436 730.4924)" class="st28" cx="750" cy="1.3" rx="29.7" ry="29.7"/>
					</g>
				</g>
				<g class="st29">
					<defs>
						<circle id="SVGID_4_" class="st29" cx="320.3" cy="315.2" r="32.2"/>
					</defs>
					<clipPath id="SVGID_5_">
						<use xlink:href="#SVGID_4_"  style="overflow:visible;"/>
					</clipPath>
				</g>
				<g class="st6">
					<defs>
						<circle id="SVGID_6_" class="st6" cx="675.5" cy="510" r="103"/>
					</defs>
					<clipPath id="SVGID_7_">
						<use xlink:href="#SVGID_6_"  style="overflow:visible;"/>
					</clipPath>
					<g class="st30">
						<line class="st31" x1="658.7" y1="343" x2="327.7" y2="674.1"/>
						<line class="st31" x1="666.7" y1="343" x2="335.6" y2="674.1"/>
						<line class="st31" x1="674.6" y1="343" x2="343.5" y2="674.1"/>
						<line class="st31" x1="682.5" y1="343" x2="351.4" y2="674.1"/>
						<line class="st31" x1="690.4" y1="343" x2="359.4" y2="674.1"/>
						<line class="st31" x1="698.4" y1="343" x2="367.3" y2="674.1"/>
						<line class="st31" x1="706.3" y1="343" x2="375.2" y2="674.1"/>
						<line class="st31" x1="714.2" y1="343" x2="383.1" y2="674.1"/>
						<line class="st31" x1="722.1" y1="343" x2="391.1" y2="674.1"/>
						<line class="st31" x1="730.1" y1="343" x2="399" y2="674.1"/>
						<line class="st31" x1="738" y1="343" x2="406.9" y2="674.1"/>
						<line class="st31" x1="745.9" y1="343" x2="414.8" y2="674.1"/>
						<line class="st31" x1="753.8" y1="343" x2="422.8" y2="674.1"/>
						<line class="st31" x1="761.8" y1="343" x2="430.7" y2="674.1"/>
						<line class="st31" x1="769.7" y1="343" x2="438.6" y2="674.1"/>
						<line class="st31" x1="777.6" y1="343" x2="446.5" y2="674.1"/>
						<line class="st31" x1="785.5" y1="343" x2="454.5" y2="674.1"/>
						<line class="st31" x1="793.4" y1="343" x2="462.4" y2="674.1"/>
						<line class="st31" x1="801.4" y1="343" x2="470.3" y2="674.1"/>
						<line class="st31" x1="809.3" y1="343" x2="478.2" y2="674.1"/>
						<line class="st31" x1="817.2" y1="343" x2="486.1" y2="674.1"/>
						<line class="st31" x1="825.1" y1="343" x2="494.1" y2="674.1"/>
						<line class="st31" x1="833.1" y1="343" x2="502" y2="674.1"/>
						<line class="st31" x1="841" y1="343" x2="509.9" y2="674.1"/>
						<line class="st31" x1="848.9" y1="343" x2="517.8" y2="674.1"/>
						<line class="st31" x1="856.8" y1="343" x2="525.8" y2="674.1"/>
						<line class="st31" x1="864.8" y1="343" x2="533.7" y2="674.1"/>
						<line class="st31" x1="872.7" y1="343" x2="541.6" y2="674.1"/>
						<line class="st31" x1="880.6" y1="343" x2="549.5" y2="674.1"/>
						<line class="st31" x1="888.5" y1="343" x2="557.5" y2="674.1"/>
						<line class="st31" x1="896.5" y1="343" x2="565.4" y2="674.1"/>
						<line class="st31" x1="904.4" y1="343" x2="573.3" y2="674.1"/>
						<line class="st31" x1="912.3" y1="343" x2="581.2" y2="674.1"/>
						<line class="st31" x1="920.2" y1="343" x2="589.2" y2="674.1"/>
						<line class="st31" x1="928.1" y1="343" x2="597.1" y2="674.1"/>
						<line class="st31" x1="936.1" y1="343" x2="605" y2="674.1"/>
						<line class="st31" x1="944" y1="343" x2="612.9" y2="674.1"/>
						<line class="st31" x1="951.9" y1="343" x2="620.8" y2="674.1"/>
						<line class="st31" x1="959.8" y1="343" x2="628.8" y2="674.1"/>
						<line class="st31" x1="967.8" y1="343" x2="636.7" y2="674.1"/>
						<line class="st31" x1="975.7" y1="343" x2="644.6" y2="674.1"/>
						<line class="st31" x1="983.6" y1="343" x2="652.5" y2="674.1"/>
						<line class="st31" x1="991.5" y1="343" x2="660.5" y2="674.1"/>
						<line class="st31" x1="999.5" y1="343" x2="668.4" y2="674.1"/>
						<line class="st31" x1="1007.4" y1="343" x2="676.3" y2="674.1"/>
					</g>
				</g>
			</g>
			<g>
				<g class="st32">
					<polyline class="st33" points="532,544.3 375,701.3 218,544.3 					"/>
					<path class="st33" d="M375,387.3"/>
				</g>
				<g>
					
						<linearGradient id="SVGID_8_" gradientUnits="userSpaceOnUse" x1="604.579" y1="-170.1926" x2="604.579" y2="-477.9496" gradientTransform="matrix(-0.4778 -0.4778 0.7154 -0.7154 490.3256 509.9454)">
						<stop  offset="0" style="stop-color:#FFFFFF"/>
						<stop  offset="1" style="stop-color:#000000;stop-opacity:0"/>
					</linearGradient>
					<path class="st34" d="M79.7,342.8L79.7,342.8c14.9,14.9,14.9,39.1,0,54L-86.5,563c-14.9,14.9-39.1,14.9-54,0h0
						c-14.9-14.9-14.9-39.1,0-54L25.7,342.8C40.6,327.9,64.8,327.9,79.7,342.8z"/>
					
						<linearGradient id="SVGID_9_" gradientUnits="userSpaceOnUse" x1="305.7264" y1="-185.1399" x2="305.7264" y2="-334.4624" gradientTransform="matrix(-0.7071 -0.7071 0.7071 -0.7071 496.064 518.6085)">
						<stop  offset="0" style="stop-color:#FFFFFF"/>
						<stop  offset="1" style="stop-color:#000000;stop-opacity:0"/>
					</linearGradient>
					<path class="st35" d="M149,433.3L149,433.3c7.7,7.7,7.7,20.2,0,27.9l-77.6,77.6c-7.7,7.7-20.2,7.7-27.9,0h0
						c-7.7-7.7-7.7-20.2,0-27.9l77.6-77.6C128.7,425.6,141.3,425.6,149,433.3z"/>
					<linearGradient id="SVGID_10_" gradientUnits="userSpaceOnUse" x1="196.7588" y1="386.1183" x2="110.5383" y2="472.3388">
						<stop  offset="0" style="stop-color:#FFFFFF"/>
						<stop  offset="1" style="stop-color:#000000;stop-opacity:0"/>
					</linearGradient>
					<path class="st36" d="M184,398.8L184,398.8c10.3,10.3,10.3,27.1,0,37.4L29.8,590.5c-10.3,10.3-27.1,10.3-37.4,0l0,0
						c-10.3-10.3-10.3-27.1,0-37.4l154.3-154.3C157,388.5,173.7,388.5,184,398.8z"/>
				</g>
			</g>
			<g class="st37">
				<circle class="st38" cx="164.8" cy="86.6" r="4.1"/>
				<path class="st38" d="M443.9,363.6c0,2.3-1.8,4.1-4.1,4.1c-2.3,0-4.1-1.8-4.1-4.1c0-2.3,1.8-4.1,4.1-4.1
					C442.1,359.6,443.9,361.4,443.9,363.6z"/>
				<path class="st38" d="M29.6,295c0,2.3-1.8,4.1-4.1,4.1c-2.3,0-4.1-1.8-4.1-4.1s1.8-4.1,4.1-4.1C27.8,290.9,29.6,292.7,29.6,295z
					"/>
				<g>
					<line class="st38" x1="392.5" y1="121.6" x2="392.5" y2="128.7"/>
					<line class="st38" x1="396.1" y1="125.1" x2="389" y2="125.1"/>
				</g>
				<g>
					<line class="st38" x1="692.6" y1="360.1" x2="692.6" y2="367.2"/>
					<line class="st38" x1="696.1" y1="363.6" x2="689" y2="363.6"/>
				</g>
				<g>
					<line class="st38" x1="189.3" y1="295.5" x2="189.3" y2="302.6"/>
					<line class="st38" x1="192.8" y1="299" x2="185.7" y2="299"/>
				</g>
				<g>
					<g>
						<line class="st38" x1="553.9" y1="445.4" x2="553.9" y2="452.5"/>
						<line class="st38" x1="557.5" y1="448.9" x2="550.3" y2="448.9"/>
					</g>
					<g>
						<path class="st38" d="M528.8,448.9"/>
					</g>
					<g>
						<line class="st38" x1="510.8" y1="445.4" x2="510.8" y2="452.5"/>
						<line class="st38" x1="514.4" y1="448.9" x2="507.2" y2="448.9"/>
					</g>
				</g>
				<g>
					<g>
						<path class="st38" d="M67.3,129.9"/>
						<path class="st38" d="M74.5,129.9"/>
					</g>
					<g>
						<path class="st38" d="M49.3,133.5"/>
						<path class="st38" d="M45.8,129.9"/>
					</g>
					<g>
						<line class="st38" x1="27.8" y1="126.4" x2="27.8" y2="133.5"/>
						<line class="st38" x1="31.4" y1="129.9" x2="24.2" y2="129.9"/>
					</g>
				</g>
				<path class="st38" d="M265.5,420.4c2.4-2.4,6.7,1.8,9.1-0.6c2.4-2.4-1.8-6.7,0.6-9.1c2.4-2.4,6.7,1.8,9.1-0.6
					c2.4-2.4-1.8-6.7,0.6-9.1c2.4-2.4,6.7,1.8,9.1-0.6c2.4-2.4-1.8-6.7,0.6-9.1c2.4-2.4,6.7,1.8,9.1-0.6"/>
			</g>
		</g>
	</g>
</g>
</svg>
